<svg width="884" height="680" viewBox="0 0 884 680" fill="none" xmlns="http://www.w3.org/2000/svg">
<path fill-rule="evenodd" clip-rule="evenodd" d="M857.338 678.479H449.595C435.422 678.479 423.932 666.984 423.932 652.805V26.674C423.932 12.4945 435.42 1 449.595 1H857.338C871.512 1 883 12.4945 883 26.674V652.805C883 666.984 871.512 678.479 857.338 678.479Z" fill="#FDFDFD" stroke="#7E89A3" stroke-width="2"/>
<path fill-rule="evenodd" clip-rule="evenodd" d="M857.338 678.479H449.595C435.422 678.479 423.932 666.984 423.932 652.805V26.674C423.932 12.4945 435.42 1 449.595 1H857.338C871.512 1 883 12.4945 883 26.674V652.805C883 666.984 871.512 678.479 857.338 678.479Z" fill="#FDFDFD" stroke="#7E89A3" stroke-width="2"/>
<path d="M848.821 69.2295H460.067V609.895H848.821V69.2295Z" fill="white" stroke="#7E89A3"/>
<path d="M514.002 127.673C513.63 126.405 513.306 125.115 513.029 123.803C513.027 123.792 513.021 123.788 513.011 123.79C513.002 123.791 512.998 123.796 512.999 123.805C513.158 125.802 513.409 127.788 513.752 129.765C513.754 129.773 513.758 129.777 513.765 129.779C514.078 129.843 514.391 129.865 514.704 129.845C514.711 129.844 514.714 129.841 514.711 129.834C514.359 128.807 514.122 128.087 514.002 127.673Z" stroke="#989ADB" stroke-width="2"/>
<path d="M515.592 137.048C513.709 137.741 511.986 139.229 510.924 140.908C510.677 141.298 510.498 141.691 510.387 142.088C510.108 143.082 510.673 144.197 511.385 144.933C511.449 144.999 511.467 144.989 511.438 144.901C511.193 144.176 511.253 143.435 511.908 143.097C512.532 142.777 513.385 142.98 513.89 143.455C513.937 143.5 513.958 143.49 513.952 143.424C513.888 142.744 513.942 142.088 514.115 141.455C514.293 140.81 514.779 140.186 515.487 140.175C515.731 140.172 515.929 140.295 516.142 140.388C516.867 140.704 517.648 140.549 518.218 140.009C518.251 139.978 518.285 139.976 518.321 140.002C519.622 140.919 520.849 142.026 522.002 143.325C522.101 143.437 522.214 143.454 522.34 143.376L522.786 143.101C522.908 143.027 522.931 142.93 522.855 142.809C521.893 141.282 520.946 139.963 520.014 138.852C519.209 137.892 518.639 137.206 518.305 136.792C517.702 136.043 517.126 135.144 516.578 134.093C515.929 132.848 515.367 131.589 514.893 130.315C514.871 130.255 514.828 130.228 514.764 130.232C514.462 130.257 514.181 130.247 513.922 130.202C513.863 130.192 513.839 130.216 513.85 130.275C514.174 132.146 514.628 133.991 515.211 135.809C515.335 136.195 515.493 136.571 515.639 136.944C515.658 136.995 515.643 137.03 515.592 137.048Z" stroke="#989ADB" stroke-width="2"/>
<path d="M525.607 147.776C524.916 146.299 524.11 144.822 523.188 143.343C523.159 143.296 523.126 143.293 523.088 143.334C522.923 143.516 522.72 143.643 522.48 143.714C522.42 143.731 522.411 143.763 522.452 143.809C523.566 145.086 524.609 146.413 525.581 147.791C525.645 147.882 525.654 147.877 525.607 147.776Z" stroke="#989ADB" stroke-width="2"/>
<path d="M513.301 143.499C512.878 143.29 512.156 143.205 511.843 143.649C511.55 144.067 511.749 144.719 511.943 145.15C512.054 145.393 512.123 145.65 512.151 145.918C512.256 146.938 512.208 148.019 512.106 149.049C511.946 150.697 512.255 152.532 512.752 154.048C512.87 154.409 513.129 154.59 513.528 154.592C513.917 154.593 514.312 154.562 514.712 154.499C514.784 154.488 514.785 154.472 514.716 154.448C514.208 154.277 513.228 154.059 513.156 153.397C513.015 152.113 512.972 150.851 513.027 149.611C513.046 149.177 513.115 148.727 513.233 148.262C513.507 147.187 513.751 146.001 513.81 144.881C513.844 144.246 513.879 143.786 513.301 143.499Z" stroke="#989ADB" stroke-width="2"/>
<path d="M514.901 145.446C514.664 145.261 514.463 145.037 514.297 144.777C514.257 144.714 514.233 144.72 514.226 144.794C514.09 146.192 513.849 147.52 513.503 148.776C513.502 148.784 513.501 148.791 513.502 148.798C513.503 148.806 513.506 148.813 513.51 148.819C513.514 148.825 513.519 148.83 513.525 148.834C513.531 148.839 513.537 148.841 513.544 148.843C514.245 148.983 514.955 148.977 515.547 148.562C516.853 147.643 515.827 146.175 514.901 145.446Z" stroke="#989ADB" stroke-width="2"/>
<path d="M511.79 147.179C511.601 147.95 511.382 149.202 511.689 149.961C511.694 149.974 511.692 149.976 511.683 149.967C511.682 149.966 511.681 149.965 511.68 149.966C511.676 149.969 511.674 149.968 511.674 149.962C511.694 149.057 511.813 148.114 511.811 147.181C511.81 147.179 511.809 147.177 511.807 147.175C511.806 147.174 511.804 147.173 511.801 147.173C511.799 147.172 511.797 147.173 511.795 147.174C511.793 147.175 511.791 147.177 511.79 147.179Z" stroke="#989ADB" stroke-width="2"/>
<path d="M543 149.778C543 151.646 542.632 153.496 541.917 155.222C541.202 156.948 540.154 158.517 538.833 159.838C537.512 161.159 535.943 162.207 534.217 162.922C532.491 163.637 530.641 164.005 528.773 164.005H507.227C503.454 164.005 499.835 162.506 497.167 159.838C494.499 157.17 493 153.551 493 149.778V128.227C493 124.454 494.499 120.835 497.167 118.167C499.835 115.499 503.454 114 507.227 114H528.773C530.641 114 532.491 114.368 534.217 115.083C535.943 115.798 537.512 116.846 538.833 118.167C540.154 119.488 541.202 121.057 541.917 122.783C542.632 124.509 543 126.359 543 128.227V149.778ZM514.002 127.673C513.63 126.405 513.306 125.115 513.029 123.803C513.027 123.792 513.021 123.788 513.011 123.79C513.002 123.791 512.998 123.796 512.999 123.805C513.158 125.802 513.409 127.788 513.752 129.765C513.754 129.773 513.758 129.777 513.765 129.779C514.078 129.843 514.391 129.865 514.704 129.845C514.711 129.844 514.713 129.841 514.711 129.834C514.359 128.807 514.122 128.087 514.002 127.673ZM515.592 137.048C513.708 137.74 511.986 139.229 510.924 140.907C510.677 141.298 510.498 141.691 510.387 142.087C510.108 143.082 510.673 144.196 511.385 144.932C511.449 144.999 511.467 144.989 511.438 144.901C511.193 144.176 511.253 143.435 511.908 143.097C512.532 142.776 513.385 142.98 513.889 143.454C513.937 143.499 513.958 143.489 513.952 143.424C513.888 142.744 513.942 142.087 514.115 141.455C514.292 140.81 514.779 140.186 515.487 140.175C515.731 140.172 515.928 140.295 516.142 140.387C516.867 140.704 517.648 140.549 518.218 140.009C518.251 139.978 518.285 139.976 518.321 140.001C519.622 140.918 520.849 142.026 522.002 143.325C522.101 143.437 522.214 143.454 522.34 143.376L522.786 143.101C522.908 143.027 522.931 142.93 522.855 142.809C521.893 141.281 520.946 139.962 520.014 138.852C519.209 137.892 518.639 137.206 518.305 136.792C517.702 136.043 517.126 135.144 516.578 134.093C515.928 132.848 515.367 131.588 514.893 130.314C514.871 130.255 514.828 130.227 514.764 130.232C514.462 130.257 514.181 130.247 513.922 130.202C513.863 130.192 513.839 130.216 513.85 130.275C514.174 132.146 514.627 133.991 515.211 135.809C515.335 136.195 515.493 136.571 515.639 136.944C515.658 136.995 515.642 137.029 515.592 137.048ZM525.607 147.776C524.916 146.299 524.11 144.822 523.188 143.343C523.159 143.296 523.126 143.293 523.088 143.334C522.923 143.516 522.72 143.643 522.48 143.714C522.42 143.732 522.411 143.763 522.452 143.809C523.566 145.086 524.609 146.413 525.58 147.791C525.645 147.882 525.654 147.877 525.607 147.776ZM513.301 143.499C512.878 143.29 512.156 143.205 511.843 143.649C511.55 144.067 511.749 144.719 511.943 145.15C512.054 145.393 512.123 145.649 512.151 145.918C512.256 146.938 512.208 148.019 512.106 149.049C511.946 150.697 512.255 152.532 512.752 154.048C512.87 154.409 513.129 154.59 513.527 154.592C513.917 154.592 514.312 154.562 514.712 154.499C514.784 154.488 514.785 154.471 514.716 154.448C514.208 154.277 513.228 154.058 513.156 153.397C513.015 152.113 512.972 150.851 513.027 149.611C513.046 149.177 513.115 148.727 513.233 148.262C513.507 147.187 513.751 146.001 513.81 144.881C513.844 144.246 513.879 143.786 513.301 143.499ZM514.9 145.446C514.664 145.261 514.463 145.037 514.297 144.777C514.257 144.714 514.233 144.72 514.226 144.794C514.09 146.192 513.849 147.52 513.503 148.776C513.502 148.783 513.501 148.791 513.502 148.798C513.503 148.805 513.506 148.812 513.51 148.819C513.514 148.825 513.519 148.83 513.525 148.834C513.531 148.838 513.537 148.841 513.544 148.843C514.245 148.983 514.955 148.977 515.547 148.562C516.853 147.643 515.827 146.175 514.9 145.446ZM511.79 147.179C511.601 147.95 511.382 149.202 511.689 149.961C511.694 149.974 511.692 149.976 511.683 149.967C511.682 149.966 511.681 149.965 511.68 149.966C511.676 149.969 511.674 149.968 511.674 149.962C511.694 149.057 511.813 148.114 511.811 147.181C511.81 147.179 511.809 147.177 511.807 147.175C511.806 147.174 511.804 147.173 511.801 147.173C511.799 147.172 511.797 147.173 511.795 147.174C511.793 147.175 511.791 147.177 511.79 147.179Z" fill="#4348BD"/>
<path d="M514.002 127.673C514.122 128.087 514.359 128.807 514.711 129.834C514.714 129.841 514.711 129.844 514.704 129.845C514.391 129.865 514.078 129.843 513.765 129.779C513.758 129.777 513.754 129.773 513.752 129.765C513.409 127.788 513.158 125.802 512.999 123.805C512.998 123.796 513.002 123.791 513.011 123.79C513.021 123.788 513.027 123.792 513.029 123.803C513.306 125.115 513.63 126.405 514.002 127.673Z" fill="#ECECF8"/>
<path d="M515.639 136.944C515.493 136.571 515.335 136.195 515.211 135.809C514.628 133.991 514.174 132.146 513.85 130.274C513.839 130.216 513.863 130.192 513.922 130.202C514.181 130.247 514.462 130.257 514.764 130.232C514.828 130.227 514.871 130.255 514.893 130.314C515.367 131.588 515.929 132.848 516.578 134.093C517.126 135.144 517.702 136.043 518.305 136.792C518.639 137.205 519.209 137.892 520.014 138.852C520.946 139.962 521.893 141.281 522.855 142.809C522.931 142.93 522.908 143.027 522.786 143.101L522.34 143.376C522.214 143.454 522.101 143.437 522.002 143.325C520.849 142.026 519.622 140.918 518.321 140.001C518.285 139.976 518.251 139.978 518.218 140.009C517.648 140.549 516.867 140.704 516.142 140.387C515.929 140.294 515.731 140.171 515.487 140.175C514.779 140.186 514.293 140.81 514.115 141.455C513.942 142.087 513.888 142.744 513.952 143.424C513.958 143.489 513.937 143.499 513.89 143.454C513.385 142.98 512.532 142.776 511.908 143.097C511.253 143.435 511.193 144.176 511.438 144.901C511.467 144.989 511.449 144.999 511.385 144.932C510.673 144.196 510.108 143.082 510.387 142.087C510.498 141.691 510.677 141.298 510.924 140.907C511.986 139.229 513.709 137.74 515.592 137.048C515.643 137.029 515.658 136.995 515.639 136.944Z" fill="#ECECF8"/>
<path d="M525.581 147.791C524.609 146.413 523.566 145.086 522.452 143.809C522.411 143.763 522.42 143.731 522.48 143.714C522.72 143.643 522.923 143.516 523.088 143.334C523.126 143.293 523.159 143.296 523.188 143.343C524.11 144.822 524.916 146.299 525.607 147.776C525.654 147.877 525.645 147.882 525.581 147.791Z" fill="#ECECF8"/>
<path d="M513.301 143.499C513.879 143.786 513.844 144.246 513.81 144.881C513.751 146.001 513.507 147.187 513.233 148.262C513.115 148.727 513.046 149.177 513.027 149.611C512.972 150.851 513.015 152.113 513.156 153.397C513.228 154.059 514.208 154.277 514.716 154.448C514.785 154.472 514.784 154.488 514.712 154.499C514.312 154.562 513.917 154.593 513.528 154.592C513.129 154.59 512.87 154.409 512.752 154.048C512.255 152.532 511.946 150.697 512.106 149.049C512.208 148.019 512.256 146.938 512.151 145.918C512.123 145.65 512.054 145.393 511.943 145.15C511.749 144.719 511.55 144.067 511.843 143.649C512.156 143.205 512.878 143.29 513.301 143.499Z" fill="#ECECF8"/>
<path d="M514.901 145.446C515.827 146.175 516.853 147.643 515.547 148.562C514.955 148.977 514.245 148.983 513.544 148.843C513.537 148.841 513.531 148.839 513.525 148.834C513.519 148.83 513.514 148.825 513.51 148.819C513.506 148.813 513.503 148.806 513.502 148.798C513.501 148.791 513.502 148.784 513.503 148.776C513.849 147.52 514.09 146.192 514.226 144.794C514.233 144.72 514.257 144.714 514.297 144.777C514.463 145.037 514.664 145.261 514.901 145.446Z" fill="#ECECF8"/>
<path d="M511.689 149.961C511.382 149.202 511.601 147.95 511.79 147.179C511.791 147.177 511.793 147.175 511.795 147.174C511.797 147.173 511.799 147.172 511.801 147.173C511.803 147.173 511.806 147.174 511.807 147.175C511.809 147.177 511.81 147.179 511.81 147.181C511.813 148.114 511.693 149.057 511.674 149.962C511.674 149.968 511.676 149.969 511.68 149.966C511.681 149.965 511.682 149.966 511.683 149.967C511.691 149.976 511.693 149.974 511.689 149.961Z" fill="#ECECF8"/>
<path d="M654.49 659.329C663.953 659.329 671.623 651.653 671.623 642.183C671.623 632.713 663.953 625.036 654.49 625.036C645.028 625.036 637.357 632.713 637.357 642.183C637.357 651.653 645.028 659.329 654.49 659.329Z" stroke="#7E89A3"/>
<path d="M652.288 43.534C655.816 43.534 658.675 40.6723 658.675 37.1423C658.675 33.6122 655.816 30.7505 652.288 30.7505C648.761 30.7505 645.902 33.6122 645.902 37.1423C645.902 40.6723 648.761 43.534 652.288 43.534Z" stroke="#7E89A3"/>
<path fill-rule="evenodd" clip-rule="evenodd" d="M278.681 588.622C278.681 607.504 263.321 622.808 244.372 622.808H35.3088C16.3601 622.808 1 607.504 1 588.622V71.5274C1 52.645 16.3601 37.3411 35.3088 37.3411H244.372C263.321 37.3411 278.681 52.645 278.681 71.5274V588.622Z" fill="#FDFDFD" stroke="#7E89A3" stroke-width="2"/>
<path d="M259.307 114.126H20.2222V539.711H259.307V114.126Z" fill="white" stroke="#7E89A3"/>
<path fill-rule="evenodd" clip-rule="evenodd" d="M165.472 92.2056C165.472 93.563 164.534 94.6575 163.378 94.6575H120.44C119.282 94.6575 118.347 93.5609 118.347 92.2056V86.6902C118.347 85.3328 119.284 84.2383 120.44 84.2383H163.378C164.534 84.2383 165.472 85.3349 165.472 86.6902V92.2056Z" stroke="#7E89A3"/>
<path d="M141.975 69.2338C145.515 69.2338 148.384 66.3625 148.384 62.8206C148.384 59.2787 145.515 56.4075 141.975 56.4075C138.436 56.4075 135.567 59.2787 135.567 62.8206C135.567 66.3625 138.436 69.2338 141.975 69.2338Z" stroke="#7E89A3"/>
<path d="M139.925 601.53C151.769 601.53 161.37 591.958 161.37 580.15C161.37 568.343 151.769 558.771 139.925 558.771C128.081 558.771 118.479 568.343 118.479 580.15C118.479 591.958 128.081 601.53 139.925 601.53Z" stroke="#7E89A3"/>
<path d="M59.0017 152.673C58.6301 151.405 58.306 150.115 58.0293 148.803C58.0269 148.792 58.0208 148.788 58.0112 148.79C58.0023 148.791 57.9983 148.796 57.9991 148.805C58.1584 150.802 58.4093 152.788 58.752 154.765C58.7536 154.773 58.758 154.777 58.7653 154.779C59.0781 154.843 59.391 154.865 59.7039 154.845C59.7112 154.844 59.7136 154.841 59.7112 154.834C59.3589 153.807 59.1224 153.087 59.0017 152.673Z" stroke="#989ADB" stroke-width="2"/>
<path d="M60.5919 162.048C58.7086 162.741 56.9857 164.229 55.9239 165.908C55.677 166.298 55.498 166.691 55.387 167.088C55.1083 168.082 55.673 169.197 56.3848 169.933C56.4492 169.999 56.4669 169.989 56.4379 169.901C56.193 169.176 56.2533 168.435 56.9084 168.097C57.5322 167.777 58.3852 167.98 58.8895 168.455C58.937 168.5 58.9579 168.49 58.9523 168.424C58.8879 167.744 58.9422 167.088 59.1151 166.455C59.2925 165.81 59.7787 165.186 60.4869 165.175C60.7307 165.172 60.9285 165.295 61.1421 165.388C61.8672 165.704 62.6478 165.549 63.2185 165.009C63.2506 164.978 63.2848 164.976 63.321 165.002C64.6216 165.919 65.8487 167.026 67.0021 168.325C67.101 168.437 67.2136 168.454 67.3399 168.376L67.7863 168.101C67.9078 168.027 67.9307 167.93 67.8551 167.809C66.8931 166.282 65.946 164.963 65.0137 163.852C64.2086 162.892 63.6391 162.206 63.3053 161.792C62.7021 161.043 62.1262 160.144 61.5776 159.093C60.9285 157.848 60.3671 156.589 59.8933 155.315C59.8708 155.255 59.8278 155.228 59.7642 155.232C59.4618 155.257 59.1811 155.247 58.9221 155.202C58.8634 155.192 58.8393 155.216 58.8497 155.275C59.1739 157.146 59.6275 158.991 60.2107 160.809C60.3349 161.195 60.493 161.571 60.639 161.944C60.6583 161.995 60.6426 162.03 60.5919 162.048Z" stroke="#989ADB" stroke-width="2"/>
<path d="M70.6071 172.776C69.9162 171.299 69.1098 169.822 68.1881 168.343C68.1591 168.296 68.1257 168.293 68.0879 168.334C67.923 168.516 67.7204 168.643 67.4799 168.714C67.4203 168.731 67.4111 168.763 67.4521 168.809C68.5661 170.086 69.6089 171.413 70.5806 172.791C70.6449 172.882 70.6538 172.877 70.6071 172.776Z" stroke="#989ADB" stroke-width="2"/>
<path d="M58.3007 168.499C57.8785 168.29 57.1558 168.205 56.8433 168.649C56.5501 169.067 56.7492 169.719 56.9434 170.15C57.0536 170.393 57.1228 170.65 57.1509 170.918C57.2559 171.938 57.2077 173.019 57.1063 174.049C56.9458 175.697 57.2547 177.532 57.7518 179.048C57.87 179.409 58.1286 179.59 58.5276 179.592C58.9169 179.593 59.3118 179.562 59.7124 179.499C59.7839 179.488 59.7852 179.472 59.716 179.448C59.208 179.277 58.2284 179.059 58.156 178.397C58.0152 177.113 57.9722 175.851 58.0269 174.611C58.0462 174.177 58.1149 173.727 58.2332 173.262C58.5071 172.187 58.7508 171.001 58.8099 169.881C58.8437 169.246 58.8787 168.786 58.3007 168.499Z" stroke="#989ADB" stroke-width="2"/>
<path d="M59.9005 170.446C59.6641 170.261 59.463 170.037 59.2973 169.777C59.2571 169.714 59.2333 169.72 59.2261 169.794C59.0902 171.192 58.8493 172.52 58.5034 173.776C58.5016 173.784 58.5012 173.791 58.5023 173.798C58.5034 173.806 58.506 173.813 58.5098 173.819C58.5137 173.825 58.5187 173.83 58.5247 173.834C58.5306 173.839 58.5373 173.841 58.5444 173.843C59.2454 173.983 59.9548 173.977 60.5472 173.562C61.8527 172.643 60.8271 171.175 59.9005 170.446Z" stroke="#989ADB" stroke-width="2"/>
<path d="M56.7902 172.179C56.6008 172.95 56.3824 174.202 56.6889 174.961C56.6937 174.974 56.6917 174.976 56.6829 174.967C56.682 174.966 56.6812 174.965 56.6804 174.966C56.6764 174.969 56.6744 174.968 56.6744 174.962C56.6937 174.057 56.8132 173.114 56.8107 172.181C56.8103 172.179 56.8091 172.177 56.8075 172.175C56.8058 172.174 56.8036 172.173 56.8014 172.173C56.7991 172.172 56.7968 172.173 56.7948 172.174C56.7928 172.175 56.7912 172.177 56.7902 172.179Z" stroke="#989ADB" stroke-width="2"/>
<path d="M88 174.778C88 176.646 87.632 178.496 86.917 180.222C86.202 181.948 85.1541 183.517 83.833 184.838C82.5119 186.159 80.9435 187.207 79.2174 187.922C77.4913 188.637 75.6412 189.005 73.7729 189.005H52.2271C48.4538 189.005 44.8351 187.506 42.167 184.838C39.4989 182.17 38 178.551 38 174.778V153.227C38 149.454 39.4989 145.835 42.167 143.167C44.8351 140.499 48.4538 139 52.2271 139H73.7729C75.6412 139 77.4913 139.368 79.2174 140.083C80.9435 140.798 82.5119 141.846 83.833 143.167C85.1541 144.488 86.202 146.057 86.917 147.783C87.632 149.509 88 151.359 88 153.227V174.778ZM59.0016 152.673C58.63 151.405 58.3059 150.115 58.0292 148.803C58.0268 148.792 58.0208 148.788 58.0111 148.79C58.0023 148.791 57.9982 148.796 57.999 148.805C58.1583 150.802 58.4092 152.788 58.7519 154.765C58.7535 154.773 58.7579 154.777 58.7652 154.779C59.0781 154.843 59.3909 154.865 59.7038 154.845C59.7111 154.844 59.7135 154.841 59.7111 154.834C59.3588 153.807 59.1223 153.087 59.0016 152.673ZM60.5918 162.048C58.7085 162.74 56.9856 164.229 55.9238 165.907C55.6769 166.298 55.498 166.691 55.387 167.087C55.1082 168.082 55.6729 169.196 56.3847 169.932C56.4491 169.999 56.4668 169.989 56.4378 169.901C56.1929 169.176 56.2532 168.435 56.9084 168.097C57.5321 167.776 58.3851 167.98 58.8894 168.454C58.9369 168.499 58.9578 168.489 58.9522 168.424C58.8878 167.744 58.9421 167.087 59.1151 166.455C59.2924 165.81 59.7786 165.186 60.4868 165.175C60.7306 165.172 60.9284 165.295 61.142 165.387C61.8671 165.704 62.6477 165.549 63.2184 165.009C63.2506 164.978 63.2847 164.976 63.3209 165.001C64.6215 165.918 65.8486 167.026 67.002 168.325C67.1009 168.437 67.2135 168.454 67.3398 168.376L67.7862 168.101C67.9077 168.027 67.9306 167.93 67.855 167.809C66.893 166.281 65.9459 164.962 65.0137 163.852C64.2085 162.892 63.639 162.206 63.3052 161.792C62.702 161.043 62.1261 160.144 61.5775 159.093C60.9284 157.848 60.367 156.588 59.8933 155.314C59.8707 155.255 59.8277 155.227 59.7642 155.232C59.4617 155.257 59.181 155.247 58.922 155.202C58.8633 155.192 58.8392 155.216 58.8496 155.275C59.1738 157.146 59.6274 158.991 60.2106 160.809C60.3348 161.195 60.4929 161.571 60.6389 161.944C60.6582 161.995 60.6425 162.029 60.5918 162.048ZM70.607 172.776C69.9161 171.299 69.1097 169.822 68.188 168.343C68.159 168.296 68.1256 168.293 68.0878 168.334C67.9229 168.516 67.7203 168.643 67.4798 168.714C67.4202 168.732 67.411 168.763 67.452 168.809C68.566 170.086 69.6088 171.413 70.5805 172.791C70.6448 172.882 70.6537 172.877 70.607 172.776ZM58.3007 168.499C57.8784 168.29 57.1557 168.205 56.8432 168.649C56.55 169.067 56.7491 169.719 56.9433 170.15C57.0535 170.393 57.1227 170.649 57.1509 170.918C57.2558 171.938 57.2076 173.019 57.1062 174.049C56.9458 175.697 57.2546 177.532 57.7517 179.048C57.8699 179.409 58.1285 179.59 58.5275 179.592C58.9168 179.592 59.3117 179.562 59.7123 179.499C59.7839 179.488 59.7851 179.471 59.7159 179.448C59.208 179.277 58.2283 179.058 58.1559 178.397C58.0151 177.113 57.9721 175.851 58.0268 174.611C58.0461 174.177 58.1149 173.727 58.2331 173.262C58.507 172.187 58.7507 171.001 58.8098 169.881C58.8436 169.246 58.8786 168.786 58.3007 168.499ZM59.9005 170.446C59.664 170.261 59.4629 170.037 59.2972 169.777C59.257 169.714 59.2333 169.72 59.2261 169.794C59.0901 171.192 58.8492 172.52 58.5034 173.776C58.5015 173.783 58.5012 173.791 58.5023 173.798C58.5034 173.805 58.5059 173.812 58.5098 173.819C58.5136 173.825 58.5187 173.83 58.5246 173.834C58.5306 173.838 58.5373 173.841 58.5444 173.843C59.2454 173.983 59.9548 173.977 60.5472 173.562C61.8526 172.643 60.8271 171.175 59.9005 170.446ZM56.7901 172.179C56.6007 172.95 56.3823 174.202 56.6888 174.961C56.6936 174.974 56.6916 174.976 56.6827 174.967C56.6819 174.966 56.6811 174.965 56.6803 174.966C56.6763 174.969 56.6743 174.968 56.6743 174.962C56.6936 174.057 56.813 173.114 56.8106 172.181C56.8102 172.179 56.809 172.177 56.8073 172.175C56.8057 172.174 56.8035 172.173 56.8012 172.173C56.799 172.172 56.7967 172.173 56.7947 172.174C56.7927 172.175 56.7911 172.177 56.7901 172.179Z" fill="#4348BD"/>
<path d="M59.0017 152.673C59.1224 153.087 59.3589 153.807 59.7112 154.834C59.7136 154.841 59.7112 154.844 59.7039 154.845C59.391 154.865 59.0781 154.843 58.7653 154.779C58.758 154.777 58.7536 154.773 58.752 154.765C58.4093 152.788 58.1584 150.802 57.9991 148.805C57.9983 148.796 58.0023 148.791 58.0112 148.79C58.0208 148.788 58.0269 148.792 58.0293 148.803C58.306 150.115 58.6301 151.405 59.0017 152.673Z" fill="#ECECF8"/>
<path d="M60.639 161.944C60.493 161.571 60.3349 161.195 60.2107 160.809C59.6275 158.991 59.1739 157.146 58.8497 155.274C58.8393 155.216 58.8634 155.192 58.9221 155.202C59.1811 155.247 59.4618 155.257 59.7642 155.232C59.8278 155.227 59.8708 155.255 59.8933 155.314C60.3671 156.588 60.9285 157.848 61.5776 159.093C62.1262 160.144 62.7021 161.043 63.3053 161.792C63.6391 162.205 64.2086 162.892 65.0137 163.852C65.946 164.962 66.8931 166.281 67.8551 167.809C67.9307 167.93 67.9078 168.027 67.7863 168.101L67.3399 168.376C67.2136 168.454 67.101 168.437 67.0021 168.325C65.8487 167.026 64.6216 165.918 63.321 165.001C63.2848 164.976 63.2506 164.978 63.2185 165.009C62.6478 165.549 61.8672 165.704 61.1421 165.387C60.9285 165.294 60.7307 165.171 60.4869 165.175C59.7787 165.186 59.2925 165.81 59.1151 166.455C58.9422 167.087 58.8879 167.744 58.9523 168.424C58.9579 168.489 58.937 168.499 58.8895 168.454C58.3852 167.98 57.5322 167.776 56.9084 168.097C56.2533 168.435 56.193 169.176 56.4379 169.901C56.4669 169.989 56.4492 169.999 56.3848 169.932C55.673 169.196 55.1083 168.082 55.387 167.087C55.498 166.691 55.677 166.298 55.9239 165.907C56.9857 164.229 58.7086 162.74 60.5919 162.048C60.6426 162.029 60.6583 161.995 60.639 161.944Z" fill="#ECECF8"/>
<path d="M70.5806 172.791C69.6089 171.413 68.5661 170.086 67.4521 168.809C67.4111 168.763 67.4203 168.731 67.4799 168.714C67.7204 168.643 67.923 168.516 68.0879 168.334C68.1257 168.293 68.1591 168.296 68.1881 168.343C69.1098 169.822 69.9162 171.299 70.6071 172.776C70.6538 172.877 70.6449 172.882 70.5806 172.791Z" fill="#ECECF8"/>
<path d="M58.3007 168.499C58.8787 168.786 58.8437 169.246 58.8099 169.881C58.7508 171.001 58.5071 172.187 58.2332 173.262C58.1149 173.727 58.0462 174.177 58.0269 174.611C57.9722 175.851 58.0152 177.113 58.156 178.397C58.2284 179.059 59.208 179.277 59.716 179.448C59.7852 179.472 59.7839 179.488 59.7124 179.499C59.3118 179.562 58.9169 179.593 58.5276 179.592C58.1286 179.59 57.87 179.409 57.7518 179.048C57.2547 177.532 56.9458 175.697 57.1063 174.049C57.2077 173.019 57.2559 171.938 57.1509 170.918C57.1228 170.65 57.0536 170.393 56.9434 170.15C56.7492 169.719 56.5501 169.067 56.8433 168.649C57.1558 168.205 57.8785 168.29 58.3007 168.499Z" fill="#ECECF8"/>
<path d="M59.9005 170.446C60.8271 171.175 61.8527 172.643 60.5472 173.562C59.9548 173.977 59.2454 173.983 58.5444 173.843C58.5373 173.841 58.5306 173.839 58.5247 173.834C58.5187 173.83 58.5137 173.825 58.5098 173.819C58.506 173.813 58.5034 173.806 58.5023 173.798C58.5012 173.791 58.5016 173.784 58.5034 173.776C58.8493 172.52 59.0902 171.192 59.2261 169.794C59.2333 169.72 59.2571 169.714 59.2973 169.777C59.463 170.037 59.6641 170.261 59.9005 170.446Z" fill="#ECECF8"/>
<path d="M56.6886 174.961C56.3822 174.202 56.6006 172.95 56.79 172.179C56.7909 172.177 56.7925 172.175 56.7945 172.174C56.7965 172.173 56.7988 172.172 56.8011 172.173C56.8034 172.173 56.8055 172.174 56.8072 172.175C56.8089 172.177 56.81 172.179 56.8105 172.181C56.8129 173.114 56.6935 174.057 56.6742 174.962C56.6742 174.968 56.6762 174.969 56.6802 174.966C56.681 174.965 56.6818 174.966 56.6826 174.967C56.6915 174.976 56.6935 174.974 56.6886 174.961Z" fill="#ECECF8"/>
</svg>
