<svg width="415" height="415" viewBox="0 0 415 415" fill="none" xmlns="http://www.w3.org/2000/svg">
<path d="M174.07 113.33C170.99 102.817 168.303 92.1232 166.01 81.2499C165.99 81.1632 165.94 81.1265 165.86 81.1399C165.787 81.1532 165.753 81.1965 165.76 81.2699C167.08 97.8165 169.16 114.283 172 130.67C172.013 130.73 172.05 130.767 172.11 130.78C174.703 131.313 177.297 131.497 179.89 131.33C179.95 131.323 179.97 131.293 179.95 131.24C177.03 122.727 175.07 116.757 174.07 113.33Z" stroke="#989ADB" stroke-width="2"/>
<path d="M187.25 191.03C171.64 196.77 157.36 209.11 148.56 223.02C146.513 226.253 145.03 229.513 144.11 232.8C141.8 241.04 146.48 250.28 152.38 256.38C152.913 256.933 153.06 256.847 152.82 256.12C150.79 250.11 151.29 243.97 156.72 241.17C161.89 238.51 168.96 240.2 173.14 244.13C173.533 244.503 173.707 244.42 173.66 243.88C173.127 238.24 173.577 232.8 175.01 227.56C176.48 222.21 180.51 217.04 186.38 216.95C188.4 216.92 190.04 217.94 191.81 218.71C197.82 221.33 204.29 220.05 209.02 215.57C209.287 215.317 209.57 215.297 209.87 215.51C220.65 223.11 230.82 232.293 240.38 243.06C241.2 243.987 242.133 244.127 243.18 243.48L246.88 241.2C247.887 240.587 248.077 239.78 247.45 238.78C239.477 226.12 231.627 215.187 223.9 205.98C217.227 198.027 212.507 192.337 209.74 188.91C204.74 182.703 199.967 175.247 195.42 166.54C190.04 156.22 185.387 145.78 181.46 135.22C181.273 134.727 180.917 134.5 180.39 134.54C177.883 134.747 175.557 134.663 173.41 134.29C172.923 134.203 172.723 134.403 172.81 134.89C175.497 150.403 179.257 165.693 184.09 180.76C185.12 183.96 186.43 187.08 187.64 190.17C187.8 190.59 187.67 190.877 187.25 191.03Z" stroke="#989ADB" stroke-width="2"/>
<path d="M270.26 279.95C264.533 267.71 257.85 255.463 250.21 243.21C249.97 242.816 249.693 242.79 249.38 243.13C248.013 244.643 246.333 245.693 244.34 246.28C243.847 246.426 243.77 246.69 244.11 247.07C253.343 257.65 261.987 268.65 270.04 280.07C270.573 280.83 270.647 280.79 270.26 279.95Z" stroke="#989ADB" stroke-width="2"/>
<path d="M168.26 244.5C164.76 242.77 158.77 242.06 156.18 245.74C153.75 249.21 155.4 254.61 157.01 258.18C157.923 260.2 158.497 262.323 158.73 264.55C159.6 273 159.2 281.96 158.36 290.5C157.03 304.16 159.59 319.37 163.71 331.93C164.69 334.923 166.833 336.427 170.14 336.44C173.367 336.447 176.64 336.19 179.96 335.67C180.553 335.583 180.563 335.443 179.99 335.25C175.78 333.83 167.66 332.02 167.06 326.54C165.893 315.893 165.537 305.433 165.99 295.16C166.15 291.56 166.72 287.833 167.7 283.98C169.97 275.07 171.99 265.24 172.48 255.95C172.76 250.69 173.05 246.88 168.26 244.5Z" stroke="#989ADB" stroke-width="2"/>
<path d="M181.52 260.64C179.56 259.1 177.893 257.25 176.52 255.09C176.187 254.57 175.99 254.616 175.93 255.23C174.803 266.823 172.807 277.827 169.94 288.24C169.925 288.299 169.922 288.361 169.931 288.421C169.94 288.482 169.961 288.539 169.993 288.591C170.025 288.642 170.067 288.686 170.116 288.721C170.166 288.755 170.221 288.778 170.28 288.79C176.09 289.95 181.97 289.9 186.88 286.46C197.7 278.85 189.2 266.68 181.52 260.64Z" stroke="#989ADB" stroke-width="2"/>
<path d="M155.74 275C154.17 281.39 152.36 291.77 154.9 298.06C154.94 298.167 154.923 298.183 154.85 298.11C154.843 298.097 154.837 298.093 154.83 298.1C154.797 298.127 154.78 298.117 154.78 298.07C154.94 290.57 155.93 282.75 155.91 275.02C155.906 275.001 155.897 274.984 155.883 274.971C155.869 274.958 155.851 274.95 155.832 274.948C155.813 274.946 155.794 274.95 155.778 274.959C155.761 274.968 155.748 274.983 155.74 275Z" stroke="#989ADB" stroke-width="2"/>
<path d="M414.42 296.54C414.42 312.025 411.37 327.359 405.444 341.666C399.518 355.973 390.832 368.972 379.882 379.922C368.932 390.872 355.933 399.558 341.626 405.484C327.319 411.41 311.986 414.46 296.5 414.46H117.92C86.6457 414.46 56.6523 402.036 34.538 379.922C12.4237 357.808 0 327.814 0 296.54V117.92C0 86.6457 12.4237 56.6523 34.538 34.538C56.6523 12.4237 86.6457 0 117.92 0H296.5C311.986 0 327.319 3.05009 341.626 8.97612C355.933 14.9022 368.932 23.5881 379.882 34.538C390.832 45.4878 399.518 58.4872 405.444 72.794C411.37 87.1007 414.42 102.435 414.42 117.92V296.54ZM174.07 113.33C170.99 102.817 168.303 92.1233 166.01 81.25C165.99 81.1633 165.94 81.1267 165.86 81.14C165.787 81.1533 165.753 81.1967 165.76 81.27C167.08 97.8167 169.16 114.283 172 130.67C172.013 130.73 172.05 130.767 172.11 130.78C174.703 131.313 177.297 131.497 179.89 131.33C179.95 131.323 179.97 131.293 179.95 131.24C177.03 122.727 175.07 116.757 174.07 113.33ZM187.25 191.03C171.64 196.77 157.36 209.11 148.56 223.02C146.513 226.253 145.03 229.513 144.11 232.8C141.8 241.04 146.48 250.28 152.38 256.38C152.913 256.933 153.06 256.847 152.82 256.12C150.79 250.11 151.29 243.97 156.72 241.17C161.89 238.51 168.96 240.2 173.14 244.13C173.533 244.503 173.707 244.42 173.66 243.88C173.127 238.24 173.577 232.8 175.01 227.56C176.48 222.21 180.51 217.04 186.38 216.95C188.4 216.92 190.04 217.94 191.81 218.71C197.82 221.33 204.29 220.05 209.02 215.57C209.287 215.317 209.57 215.297 209.87 215.51C220.65 223.11 230.82 232.293 240.38 243.06C241.2 243.987 242.133 244.127 243.18 243.48L246.88 241.2C247.887 240.587 248.077 239.78 247.45 238.78C239.477 226.12 231.627 215.187 223.9 205.98C217.227 198.027 212.507 192.337 209.74 188.91C204.74 182.703 199.967 175.247 195.42 166.54C190.04 156.22 185.387 145.78 181.46 135.22C181.273 134.727 180.917 134.5 180.39 134.54C177.883 134.747 175.557 134.663 173.41 134.29C172.923 134.203 172.723 134.403 172.81 134.89C175.497 150.403 179.257 165.693 184.09 180.76C185.12 183.96 186.43 187.08 187.64 190.17C187.8 190.59 187.67 190.877 187.25 191.03ZM270.26 279.95C264.533 267.71 257.85 255.463 250.21 243.21C249.97 242.817 249.693 242.79 249.38 243.13C248.013 244.643 246.333 245.693 244.34 246.28C243.847 246.427 243.77 246.69 244.11 247.07C253.343 257.65 261.987 268.65 270.04 280.07C270.573 280.83 270.647 280.79 270.26 279.95ZM168.26 244.5C164.76 242.77 158.77 242.06 156.18 245.74C153.75 249.21 155.4 254.61 157.01 258.18C157.923 260.2 158.497 262.323 158.73 264.55C159.6 273 159.2 281.96 158.36 290.5C157.03 304.16 159.59 319.37 163.71 331.93C164.69 334.923 166.833 336.427 170.14 336.44C173.367 336.447 176.64 336.19 179.96 335.67C180.553 335.583 180.563 335.443 179.99 335.25C175.78 333.83 167.66 332.02 167.06 326.54C165.893 315.893 165.537 305.433 165.99 295.16C166.15 291.56 166.72 287.833 167.7 283.98C169.97 275.07 171.99 265.24 172.48 255.95C172.76 250.69 173.05 246.88 168.26 244.5ZM181.52 260.64C179.56 259.1 177.893 257.25 176.52 255.09C176.187 254.57 175.99 254.617 175.93 255.23C174.803 266.823 172.807 277.827 169.94 288.24C169.925 288.299 169.922 288.361 169.931 288.421C169.94 288.482 169.961 288.539 169.993 288.591C170.025 288.642 170.067 288.687 170.116 288.721C170.166 288.755 170.221 288.779 170.28 288.79C176.09 289.95 181.97 289.9 186.88 286.46C197.7 278.85 189.2 266.68 181.52 260.64ZM155.74 275C154.17 281.39 152.36 291.77 154.9 298.06C154.94 298.167 154.923 298.183 154.85 298.11C154.843 298.097 154.837 298.093 154.83 298.1C154.797 298.127 154.78 298.117 154.78 298.07C154.94 290.57 155.93 282.75 155.91 275.02C155.906 275.001 155.897 274.984 155.883 274.971C155.869 274.959 155.851 274.95 155.832 274.948C155.813 274.946 155.794 274.95 155.778 274.959C155.761 274.968 155.748 274.983 155.74 275Z" fill="#4348BD"/>
<path d="M174.07 113.33C175.07 116.757 177.03 122.727 179.95 131.24C179.97 131.293 179.95 131.323 179.89 131.33C177.297 131.497 174.703 131.313 172.11 130.78C172.05 130.767 172.013 130.73 172 130.67C169.16 114.283 167.08 97.8165 165.76 81.2699C165.753 81.1965 165.787 81.1532 165.86 81.1399C165.94 81.1265 165.99 81.1632 166.01 81.2499C168.303 92.1232 170.99 102.817 174.07 113.33Z" fill="#ECECF8"/>
<path d="M187.64 190.17C186.43 187.08 185.12 183.96 184.09 180.76C179.257 165.693 175.497 150.403 172.81 134.89C172.723 134.403 172.923 134.203 173.41 134.29C175.557 134.663 177.883 134.747 180.39 134.54C180.917 134.5 181.273 134.727 181.46 135.22C185.387 145.78 190.04 156.22 195.42 166.54C199.967 175.247 204.74 182.703 209.74 188.91C212.507 192.337 217.227 198.027 223.9 205.98C231.627 215.187 239.477 226.12 247.45 238.78C248.077 239.78 247.887 240.587 246.88 241.2L243.18 243.48C242.133 244.127 241.2 243.987 240.38 243.06C230.82 232.293 220.65 223.11 209.87 215.51C209.57 215.297 209.287 215.317 209.02 215.57C204.29 220.05 197.82 221.33 191.81 218.71C190.04 217.94 188.4 216.92 186.38 216.95C180.51 217.04 176.48 222.21 175.01 227.56C173.577 232.8 173.127 238.24 173.66 243.88C173.707 244.42 173.533 244.503 173.14 244.13C168.96 240.2 161.89 238.51 156.72 241.17C151.29 243.97 150.79 250.11 152.82 256.12C153.06 256.847 152.913 256.933 152.38 256.38C146.48 250.28 141.8 241.04 144.11 232.8C145.03 229.513 146.513 226.253 148.56 223.02C157.36 209.11 171.64 196.77 187.25 191.03C187.67 190.877 187.8 190.59 187.64 190.17Z" fill="#ECECF8"/>
<path d="M270.04 280.07C261.987 268.65 253.343 257.65 244.11 247.07C243.77 246.69 243.847 246.427 244.34 246.28C246.333 245.693 248.013 244.643 249.38 243.13C249.693 242.79 249.97 242.817 250.21 243.21C257.85 255.463 264.533 267.71 270.26 279.95C270.647 280.79 270.573 280.83 270.04 280.07Z" fill="#ECECF8"/>
<path d="M168.26 244.5C173.05 246.88 172.76 250.69 172.48 255.95C171.99 265.24 169.97 275.07 167.7 283.98C166.72 287.833 166.15 291.56 165.99 295.16C165.537 305.433 165.893 315.893 167.06 326.54C167.66 332.02 175.78 333.83 179.99 335.25C180.563 335.443 180.553 335.583 179.96 335.67C176.64 336.19 173.367 336.447 170.14 336.44C166.833 336.427 164.69 334.923 163.71 331.93C159.59 319.37 157.03 304.16 158.36 290.5C159.2 281.96 159.6 273 158.73 264.55C158.497 262.323 157.923 260.2 157.01 258.18C155.4 254.61 153.75 249.21 156.18 245.74C158.77 242.06 164.76 242.77 168.26 244.5Z" fill="#ECECF8"/>
<path d="M181.52 260.64C189.2 266.68 197.7 278.85 186.88 286.46C181.97 289.9 176.09 289.95 170.28 288.79C170.221 288.779 170.166 288.755 170.116 288.721C170.067 288.687 170.025 288.642 169.993 288.591C169.961 288.539 169.94 288.482 169.931 288.421C169.922 288.361 169.925 288.299 169.94 288.24C172.807 277.827 174.803 266.823 175.93 255.23C175.99 254.617 176.187 254.57 176.52 255.09C177.893 257.25 179.56 259.1 181.52 260.64Z" fill="#ECECF8"/>
<path d="M154.9 298.06C152.36 291.77 154.17 281.39 155.74 275C155.748 274.983 155.761 274.969 155.778 274.959C155.794 274.95 155.813 274.946 155.832 274.948C155.851 274.951 155.869 274.959 155.883 274.972C155.897 274.985 155.906 275.001 155.91 275.02C155.93 282.75 154.94 290.57 154.78 298.07C154.78 298.117 154.797 298.127 154.83 298.1C154.837 298.093 154.843 298.097 154.85 298.11C154.923 298.183 154.94 298.167 154.9 298.06Z" fill="#ECECF8"/>
</svg>
